<svg fill="none" viewBox="0 0 594 221" xmlns="http://www.w3.org/2000/svg"><g fill="#fff"><path d="m289.578 13.7031c0 1.9688-.562 3.7969-1.687 5.4844-2.344 3.4687-5.86 5.2031-10.547 5.2031h-64.266c-15 118.3124-22.922 179.6714-23.766 184.0784-.093.562-.187 1.125-.281 1.687-1.5 6.563-5.297 9.844-11.39 9.844-2.25 0-4.219-.609-5.907-1.828-3.562-2.438-5.343-6.375-5.343-11.813 0-1.125 5.671-43.875 17.015-128.2496 3.844-28.4063 6.235-46.3125 7.172-53.7188h-60.047c-2.156 0-4.219-.3281-6.187-.9844-4.969-1.6874-7.453-4.7812-7.453-9.2812 0-2.25.562-4.35938 1.687-6.32812 2.25-3.75 5.766-5.625 10.547-5.625h148.5c1.313 0 2.719.28124 4.219.84374 5.156 1.96876 7.734 5.53126 7.734 10.68748z"/><path d="m320.938 185.828c0 .094.046.188.14.281 3 8.719 6.984 13.079 11.953 13.079 2.907-.188 7.594-2.25 14.063-6.188 5.812-3.844 10.172-5.766 13.078-5.766 1.406 0 2.812.469 4.219 1.407 2.437 1.875 3.656 4.031 3.656 6.468-.375 5.157-4.078 10.5-11.109 16.032-8.438 6.093-17.344 9.14-26.719 9.14-6.188 0-11.531-1.593-16.031-4.781-10.5-7.5-15.75-22.734-15.75-45.703 0-4.5.187-9.235.562-14.203.75-9.563 1.5-15.422 2.25-17.578-6.188 3.187-12.609 4.781-19.266 4.781-.75 0-1.875-.094-3.375-.281-.75-.094-1.312-.141-1.687-.141-.281.187-1.36.797-3.234 1.828-6.282 3.656-11.344 5.485-15.188 5.485-1.125 0-2.297-.282-3.516-.844-2.906-1.5-4.359-3.656-4.359-6.469 0-.469.047-.937.141-1.406.281-1.875 1.734-3.844 4.359-5.907 1.031-.75 1.781-1.359 2.25-1.828-5.813-5.343-8.766-12.656-8.859-21.937 0-4.031.984-7.781 2.953-11.25 4.125-7.2189 10.687-10.8282 19.687-10.8282 4.594 0 8.953 1.2187 13.078 3.6562 6.75 4.2188 10.125 10.031 10.125 17.437 0 4.407-.656 8.391-1.968 11.954 1.406-.657 3.843-2.204 7.312-4.641 7.125-4.875 12.141-7.313 15.047-7.313 3.844.094 7.078 1.266 9.703 3.516 1.406 1.219 2.156 2.578 2.25 4.078 0 .563-.141 1.406-.422 2.532-.281.843-.422 1.453-.422 1.828-4.875 16.5-7.312 30.656-7.312 42.468 0 5.157.609 10.969 1.828 17.438.281 1.687.469 2.906.563 3.656zm-44.297-73.687c0-.657-.094-1.36-.282-2.11-.843-2.343-2.578-3.515-5.203-3.515-.562 0-1.172.093-1.828.281-2.625.844-3.937 2.625-3.937 5.344.093 4.406 2.437 7.781 7.031 10.125 2.719-2.907 4.125-6.282 4.219-10.125z"/><path d="m351.031 175.844c0-3.188.188-6.563.563-10.125 1.968-16.125 7.031-30.422 15.187-42.891 9.938-15.187 21.891-22.781 35.86-22.781 6 0 11.25 1.172 15.75 3.515 1.875-2.25 4.453-3.421 7.734-3.515 1.875 0 3.047.141 3.516.422 4.031 1.312 6.047 5.297 6.047 11.953 0 2.719-.469 8.578-1.407 17.578-2.906 26.625-4.359 43.172-4.359 49.641 0 4.312.89 8.343 2.672 12.093 2.625 5.625 6.094 8.438 10.406 8.438.844 0 1.734-.094 2.672-.281 2.812-.563 6.844-2.719 12.094-6.469 5.156-3.75 9.281-5.625 12.375-5.625 1.218 0 2.484.422 3.797 1.265 2.718 1.876 4.078 4.36 4.078 7.454-.282 4.875-3.985 9.937-11.11 15.187-8.531 6-17.578 9-27.14 9-11.813-.094-20.532-6.047-26.157-17.859-1.312 1.594-2.812 3.187-4.5 4.781-9.281 8.719-18.703 13.078-28.265 13.078-6 0-11.203-1.547-15.61-4.641-9.468-6.937-14.203-20.343-14.203-40.218zm61.875-46.266s.328-3.187.985-9.562c-2.063-1.032-4.219-1.547-6.469-1.547-1.688 0-3.422.234-5.203.703-8.719 2.437-16.078 10.5-22.078 24.187-5.344 12.282-8.016 24.61-8.016 36.985v1.406c.281 11.438 3.187 17.156 8.719 17.156 2.906-.094 6.468-1.687 10.687-4.781 4.313-3.094 7.453-6 9.422-8.719 1.219-1.781 2.859-6.984 4.922-15.609 3.75-16.031 6.094-29.438 7.031-40.219z"/><path d="m513.734 100.891c4.032.093 7.219 2.671 9.563 7.734l15.328 34.453 27.422-37.125c2.437-3.281 5.391-4.969 8.859-5.062 1.5.187 2.953.656 4.36 1.406 3.656 1.969 5.484 4.969 5.484 9 0 1.594-.422 3.094-1.266 4.5-.562 1.031-3.515 5.109-8.859 12.234-9.375 12.469-18.281 24.469-26.719 36l19.688 41.344c.562 1.313.844 2.906.844 4.781 0 1.032-.141 2.063-.422 3.094-1.219 4.219-4.266 6.562-9.141 7.031-2.531 0-4.922-1.125-7.172-3.375-2.344-2.437-5.859-8.578-10.547-18.422-3.094-6.375-5.625-11.39-7.594-15.046l-20.671 28.124c-.563.75-1.125 1.454-1.688 2.11-3.562 4.406-6.937 6.609-10.125 6.609-1.125 0-2.39-.328-3.797-.984-4.031-1.875-6.047-4.735-6.047-8.578 0-2.719 1.266-5.766 3.797-9.141l29.531-39.375-19.406-42.328c-1.312-2.906-2.015-5.625-2.109-8.156 0-1.407.187-2.719.562-3.938 1.5-4.593 4.875-6.89 10.125-6.89z"/><path d="m75 126.415c5.2 0 9.4154-4.215 9.4154-9.415s-4.2154-9.415-9.4154-9.415-9.4154 4.215-9.4154 9.415 4.2154 9.415 9.4154 9.415z"/><path d="m75 45c-39.7643 0-72 32.2357-72 72 0 39.764 32.2357 72 72 72 39.764 0 72-32.236 72-72 0-39.7643-32.236-72-72-72zm-27.4525 17.907c8.2417-4.1899 17.5713-6.5528 27.4525-6.5528.5803 0 1.1555.0078 1.7306.0234.9551.026 1.6109 2.3994 1.4677 5.2698l-.7338 14.7737c-.1432 2.8704-.7521 5.1683-1.3611 5.1501-.3669-.0104-.7339-.0156-1.1034-.0156-5.1969 0-10.1337 1.119-14.5811 3.1281-2.6206 1.184-5.7565.4788-7.219-1.9961l-7.5365-12.7438c-1.4625-2.4749-.6792-5.733 1.8841-7.0368zm-2.9459 27.1011-11.133-9.7381c-2.1651-1.8919-2.3889-5.1891-.3096-7.1721.0494-.0469.0963-.0911.1483-.1379 2.0871-1.9779 5.3583-1.5745 7.1227.6922l9.0927 11.6691c1.767 2.2666 2.1782 4.9158 1.0175 6.0219-1.1632 1.1112-3.7734.5569-5.9386-1.3351zm4.9211 26.9919c0-14.071 11.4062-25.4773 25.4773-25.4773s25.477 11.4063 25.477 25.4773-11.4059 25.477-25.477 25.477-25.4773-11.406-25.4773-25.477zm52.8103 54.153c-8.2133 4.153-17.5012 6.493-27.333 6.493-.6454 0-1.2882-.011-1.9284-.029-1.0643-.034-1.8008-2.417-1.6447-5.288l.8068-14.771c.1587-2.87.8379-5.155 1.525-5.132.4111.013.8249.021 1.2413.021 4.7728 0 9.3217-.942 13.4777-2.649 2.6597-1.093 5.9204-.375 7.4871 2.035l8.0702 12.413c1.566 2.407.864 5.608-1.702 6.907zm14.18-9.941c-1.993 1.874-5.218 1.434-7.034-.794l-9.343-11.469c-1.8161-2.227-2.2793-4.809-1.1317-5.868 1.1507-1.059 3.7557-.466 5.9177 1.429l11.138 9.743c2.166 1.892 2.449 5.085.453 6.959z"/></g></svg>